<svg width="16" height="16" viewBox="0 0 16 16" fill="none" xmlns="http://www.w3.org/2000/svg">
<g clip-path="url(#clip0_3201_155)">
<path d="M0.862648 8.47041L5.52932 13.1371C5.65505 13.2585 5.82345 13.3257 5.99825 13.3242C6.17305 13.3227 6.34026 13.2526 6.46386 13.129C6.58747 13.0054 6.65758 12.8381 6.6591 12.6633C6.66062 12.4885 6.59342 12.3201 6.47198 12.1944L2.94332 8.66574L14.6673 8.66574C14.8441 8.66574 15.0137 8.59551 15.1387 8.47048C15.2637 8.34546 15.334 8.17589 15.334 7.99908C15.334 7.82227 15.2637 7.6527 15.1387 7.52767C15.0137 7.40265 14.8441 7.33241 14.6673 7.33241L2.94332 7.33241L6.47198 3.80374C6.53566 3.74225 6.58645 3.66868 6.62138 3.58735C6.65632 3.50601 6.67471 3.41853 6.67548 3.33001C6.67625 3.24149 6.65938 3.15371 6.62586 3.07178C6.59234 2.98984 6.54284 2.91541 6.48025 2.85281C6.41765 2.79022 6.34322 2.74072 6.26129 2.7072C6.17936 2.67368 6.09157 2.65681 6.00305 2.65758C5.91453 2.65835 5.82705 2.67674 5.74571 2.71168C5.66438 2.74662 5.59081 2.7974 5.52932 2.86108L0.862648 7.52774C0.737667 7.65276 0.667458 7.8223 0.667458 7.99908C0.667458 8.17585 0.737667 8.34539 0.862648 8.47041Z" fill="white"/>
</g>
<defs>
<clipPath id="clip0_3201_155">
<rect width="16" height="16" fill="white" transform="translate(16 16) rotate(-180)"/>
</clipPath>
</defs>
</svg>
