<svg width="13" height="16" viewBox="0 0 13 16" fill="none" xmlns="http://www.w3.org/2000/svg">
    <path d="M0.902344 4.92383V10.5033C0.9844 11.5699 1.06645 12.9648 1.1485 13.9495C1.23055 15.0982 2.21517 16.0007 3.36389 16.0007H9.43565C10.5844 16.0007 11.569 15.0982 11.6511 13.9495C11.7331 12.9648 11.8152 11.5699 11.8972 10.5033C11.9792 9.27251 11.8972 6.72891 11.8972 4.92383H0.902344Z" fill="white"/>
    <path d="M12.1436 2.46154H10.0923L9.43592 1.23077C9.02568 0.492312 8.2872 0 7.46664 0H5.49744C4.67692 0 3.85641 0.492312 3.52821 1.23077L2.7077 2.46154H0.656408C0.328208 2.46154 0 2.78974 0 3.11795C0 3.44615 0.328208 3.77436 0.656408 3.77436H12.1436C12.4718 3.77436 12.8 3.52821 12.8 3.11795C12.8 2.7077 12.4718 2.46154 12.1436 2.46154ZM4.10257 2.46154L4.51282 1.80513C4.67692 1.47692 5.00512 1.23077 5.41536 1.23077H7.38464C7.79488 1.23077 8.12304 1.39487 8.2872 1.80513L8.69744 2.46154H4.10257Z" fill="white"/>
</svg>