<svg width="18" height="17" viewBox="0 0 18 17" fill="none" xmlns="http://www.w3.org/2000/svg">
    <path d="M17.2899 10.4842C17.1167 10.4842 16.9505 10.553 16.828 10.6755C16.7055 10.798 16.6367 10.9641 16.6367 11.1374V13.368C16.6367 13.8938 16.4278 14.398 16.0561 14.7698C15.6843 15.1416 15.18 15.3504 14.6543 15.3504H3.2888C2.76303 15.3504 2.25879 15.1416 1.88702 14.7698C1.51524 14.398 1.30638 13.8938 1.30638 13.368V11.1374C1.30638 10.9641 1.23756 10.798 1.11506 10.6755C0.992565 10.553 0.826424 10.4842 0.653188 10.4842C0.479952 10.4842 0.313811 10.553 0.191314 10.6755C0.0688178 10.798 0 10.9641 0 11.1374V13.368C0.00086463 14.24 0.34764 15.076 0.964222 15.6926C1.58081 16.3092 2.41682 16.656 3.2888 16.6568H14.6543C15.5263 16.656 16.3623 16.3092 16.9789 15.6926C17.5954 15.076 17.9422 14.24 17.9431 13.368V11.1374C17.9431 10.9641 17.8743 10.798 17.7518 10.6755C17.6293 10.553 17.4631 10.4842 17.2899 10.4842Z" fill="white"/>
    <path d="M8.5077 12.391C8.56842 12.4522 8.64067 12.5008 8.72026 12.534C8.79986 12.5671 8.88524 12.5842 8.97147 12.5842C9.05769 12.5842 9.14307 12.5671 9.22267 12.534C9.30226 12.5008 9.37451 12.4522 9.43523 12.391L13.1519 8.67434C13.2556 8.54956 13.3091 8.39065 13.3021 8.22855C13.2951 8.06646 13.228 7.91278 13.1138 7.79744C12.9997 7.68211 12.8468 7.61337 12.6848 7.60461C12.5228 7.59586 12.3633 7.64771 12.2374 7.75007L9.62465 10.3628V0.653188C9.62465 0.479952 9.55584 0.313811 9.43334 0.191314C9.31084 0.0688178 9.1447 0 8.97147 0C8.79823 0 8.63209 0.0688178 8.50959 0.191314C8.3871 0.313811 8.31828 0.479952 8.31828 0.653188V10.353L5.70553 7.74028C5.58296 7.61771 5.41673 7.54886 5.24339 7.54886C5.07006 7.54886 4.90383 7.61771 4.78126 7.74028C4.6587 7.86284 4.58984 8.02908 4.58984 8.20241C4.58984 8.37574 4.6587 8.54197 4.78126 8.66454L8.5077 12.391Z" fill="white"/>
</svg>