<svg width="39" height="39" viewBox="0 0 39 39" fill="none" xmlns="http://www.w3.org/2000/svg">
    <path d="M4.65008 2.06194L0.950593 19.0805C0.921107 19.2159 0.926091 19.3566 0.965091 19.4896C1.00409 19.6226 1.07585 19.7437 1.17381 19.8417L18.6788 37.3467C18.7946 37.4624 18.9421 37.5411 19.1026 37.573C19.2631 37.6049 19.4295 37.5886 19.5807 37.5259C19.7319 37.4633 19.8612 37.3573 19.9522 37.2212C20.0432 37.0852 20.0918 36.9252 20.0919 36.7616V9.87266C20.0918 9.72489 20.0522 9.57983 19.9771 9.45253C19.9021 9.32524 19.7943 9.22036 19.665 9.14877L5.86309 1.51324C5.75004 1.45012 5.62377 1.4144 5.49441 1.40894C5.36506 1.40348 5.23622 1.42843 5.11826 1.48179C5.00029 1.53515 4.89649 1.61543 4.81518 1.71619C4.73387 1.81695 4.67732 1.93536 4.65008 2.06194Z" fill="url(#paint0_linear_2445_388)"/>
    <path d="M38.7957 19.3676L20.2093 37.8446C20.0796 37.9743 19.9036 38.0472 19.7202 38.0472C19.5368 38.0472 19.3608 37.9743 19.2311 37.8446L1.13382 19.7474C1.05796 19.6714 1.00083 19.5787 0.966954 19.4768C0.933083 19.3749 0.9234 19.2665 0.938672 19.1602C0.953944 19.0539 0.993754 18.9526 1.05495 18.8644C1.11614 18.7761 1.19703 18.7033 1.29123 18.6518L33.7863 0.870188C33.8795 0.819143 33.9832 0.790257 34.0894 0.785773C34.1956 0.781288 34.3013 0.801324 34.3985 0.844327C34.4957 0.88733 34.5817 0.952143 34.6498 1.03374C34.7179 1.11534 34.7663 1.21152 34.7912 1.31484L38.9816 18.7193C39.0085 18.8343 39.0055 18.9542 38.973 19.0677C38.9404 19.1811 38.8794 19.2844 38.7957 19.3676Z" fill="url(#paint1_linear_2445_388)"/>
    <defs>
        <linearGradient id="paint0_linear_2445_388" x1="9.42029" y1="20.6501" x2="6.17435" y2="2.24157" gradientUnits="userSpaceOnUse">
            <stop stop-color="#EDA643"/>
            <stop offset="1" stop-color="#EA532A"/>
        </linearGradient>
        <linearGradient id="paint1_linear_2445_388" x1="19.9627" y1="-0.0152141" x2="19.9627" y2="38.0468" gradientUnits="userSpaceOnUse">
            <stop stop-color="#F5A22F"/>
            <stop offset="1" stop-color="#EA532A"/>
        </linearGradient>
    </defs>
</svg>