<svg width="286" height="45" viewBox="0 0 286 45" xmlns="http://www.w3.org/2000/svg">
    <path d="M76.1318 27.8499C74.6625 27.8499 73.2363 27.6684 71.8534 27.3053C70.4704 26.9423 69.3468 26.4583 68.4824 25.8532L70.1679 22.0674C70.9804 22.6033 71.9225 23.0355 72.9943 23.3639C74.0661 23.6924 75.1206 23.8566 76.1578 23.8566C78.1285 23.8566 79.1138 23.3639 79.1138 22.3786C79.1138 21.86 78.8286 21.4797 78.2581 21.2377C77.7049 20.9784 76.806 20.7104 75.5614 20.4338C74.1957 20.1399 73.0548 19.8288 72.1386 19.5003C71.2224 19.1546 70.4358 18.6101 69.7789 17.8667C69.122 17.1234 68.7936 16.1208 68.7936 14.8588C68.7936 13.7525 69.0961 12.7585 69.7011 11.8768C70.3062 10.9779 71.2051 10.2692 72.3979 9.75056C73.608 9.23196 75.086 8.97266 76.832 8.97266C78.0247 8.97266 79.2002 9.11095 80.3585 9.38754C81.5167 9.64684 82.5366 10.0358 83.4182 10.5544L81.8365 14.3661C80.1078 13.4327 78.431 12.9659 76.806 12.9659C75.7861 12.9659 75.0428 13.1215 74.576 13.4327C74.1093 13.7265 73.8759 14.1155 73.8759 14.5995C73.8759 15.0835 74.1525 15.4466 74.7057 15.6886C75.2589 15.9306 76.1491 16.1813 77.3765 16.4406C78.7594 16.7344 79.9004 17.0542 80.7993 17.4C81.7155 17.7284 82.502 18.2643 83.1589 19.0077C83.8331 19.7337 84.1702 20.7277 84.1702 21.9896C84.1702 23.0787 83.8677 24.064 83.2627 24.9457C82.6576 25.8273 81.7501 26.5361 80.54 27.072C79.3299 27.5906 77.8605 27.8499 76.1318 27.8499Z" fill="#242424"/>
    <path d="M103.811 9.33568V27.4868H98.6772V20.4079H91.676V27.4868H86.5418V9.33568H91.676V16.1553H98.6772V9.33568H103.811Z" fill="#242424"/>
    <path d="M115.368 22.6638H112.567V27.4868H107.433V9.33568H115.731C117.373 9.33568 118.799 9.61227 120.009 10.1654C121.219 10.7013 122.153 11.4792 122.809 12.4992C123.466 13.5018 123.795 14.6859 123.795 16.0516C123.795 17.3654 123.484 18.515 122.861 19.5003C122.256 20.4684 121.383 21.229 120.242 21.7822L124.158 27.4868H118.661L115.368 22.6638ZM118.609 16.0516C118.609 15.2046 118.341 14.5477 117.805 14.0809C117.269 13.6142 116.474 13.3808 115.419 13.3808H112.567V18.6965H115.419C116.474 18.6965 117.269 18.4718 117.805 18.0223C118.341 17.5556 118.609 16.8987 118.609 16.0516Z" fill="#242424"/>
    <path d="M138.789 23.9603H131.113L129.687 27.4868H124.449L132.462 9.33568H137.518L145.556 27.4868H140.215L138.789 23.9603ZM137.285 20.1745L134.951 14.3661L132.617 20.1745H137.285Z" fill="#242424"/>
    <path d="M147.012 9.33568H155.595C157.583 9.33568 159.346 9.70735 160.885 10.4507C162.423 11.194 163.616 12.2485 164.463 13.6142C165.31 14.9798 165.734 16.5789 165.734 18.4113C165.734 20.2437 165.31 21.8427 164.463 23.2084C163.616 24.574 162.423 25.6285 160.885 26.3718C159.346 27.1152 157.583 27.4868 155.595 27.4868H147.012V9.33568ZM155.387 23.3899C156.943 23.3899 158.188 22.949 159.121 22.0674C160.072 21.1858 160.547 19.9671 160.547 18.4113C160.547 16.8554 160.072 15.6367 159.121 14.7551C158.188 13.8735 156.943 13.4327 155.387 13.4327H152.146V23.3899H155.387Z" fill="#242424"/>
    <path d="M185.704 9.33568V27.4868H180.57V20.4079H173.569V27.4868H168.435V9.33568H173.569V16.1553H180.57V9.33568H185.704Z" fill="#242424"/>
    <path d="M201.487 23.9603H193.812L192.386 27.4868H187.148L195.16 9.33568H200.216L208.255 27.4868H202.913L201.487 23.9603ZM199.983 20.1745L197.649 14.3661L195.316 20.1745H199.983Z" fill="#242424"/>
    <path d="M226.98 9.33568V27.4868H222.753L214.741 17.8149V27.4868H209.71V9.33568H213.937L221.949 19.0077V9.33568H226.98Z" fill="#242424"/>
    <path d="M234.569 27.8499C233.238 27.8499 232.028 27.6251 230.939 27.1757C229.849 26.7089 228.959 26.0434 228.268 25.179L231.068 21.86C232.036 23.1219 233.082 23.7529 234.206 23.7529C234.949 23.7529 235.511 23.5282 235.891 23.0787C236.289 22.6292 236.488 21.9723 236.488 21.108V13.303H230.212V9.33568H241.57V20.7968C241.57 23.1478 240.974 24.9111 239.781 26.0866C238.605 27.2621 236.868 27.8499 234.569 27.8499Z" fill="#242424"/>
    <path d="M256.817 23.9603H249.141L247.715 27.4868H242.477L250.49 9.33568H255.546L263.584 27.4868H258.243L256.817 23.9603ZM255.313 20.1745L252.979 14.3661L250.645 20.1745H255.313Z" fill="#242424"/>
    <path d="M265.04 9.33568H270.174V23.4158H278.835V27.4868H265.04V9.33568Z" fill="#242424"/>
    <path d="M280.867 9.33568H286.001V27.4868H280.867V9.33568Z" fill="#242424"/>
    <path d="M73.9426 33.1906C74.9072 33.1906 75.7422 33.3514 76.4475 33.6729C77.1632 33.9944 77.7129 34.4508 78.0967 35.042C78.4804 35.6332 78.6723 36.3333 78.6723 37.1424C78.6723 37.941 78.4804 38.6411 78.0967 39.2427C77.7129 39.8339 77.1632 40.2903 76.4475 40.6118C75.7422 40.923 74.9072 41.0786 73.9426 41.0786H71.7489V44.0813H69.2285V33.1906H73.9426ZM73.8026 39.0249C74.5598 39.0249 75.1354 38.8641 75.5296 38.5426C75.9237 38.2107 76.1208 37.744 76.1208 37.1424C76.1208 36.5304 75.9237 36.0637 75.5296 35.7421C75.1354 35.4102 74.5598 35.2443 73.8026 35.2443H71.7489V39.0249H73.8026Z" fill="#242424"/>
    <path d="M90.46 33.1906V44.0813H87.9396V39.6161H82.9921V44.0813H80.4717V33.1906H82.9921V37.4846H87.9396V33.1906H90.46Z" fill="#242424"/>
    <path d="M98.3109 44.268C97.1804 44.268 96.1587 44.0243 95.246 43.5368C94.3436 43.0493 93.6331 42.3803 93.1145 41.5298C92.6063 40.6689 92.3522 39.7043 92.3522 38.636C92.3522 37.5676 92.6063 36.6082 93.1145 35.7577C93.6331 34.8968 94.3436 34.2226 95.246 33.7351C96.1587 33.2477 97.1804 33.0039 98.3109 33.0039C99.4415 33.0039 100.458 33.2477 101.36 33.7351C102.263 34.2226 102.973 34.8968 103.492 35.7577C104.01 36.6082 104.27 37.5676 104.27 38.636C104.27 39.7043 104.01 40.6689 103.492 41.5298C102.973 42.3803 102.263 43.0493 101.36 43.5368C100.458 44.0243 99.4415 44.268 98.3109 44.268ZM98.3109 42.121C98.954 42.121 99.5348 41.9758 100.053 41.6853C100.572 41.3846 100.977 40.9697 101.267 40.4407C101.568 39.9117 101.718 39.3101 101.718 38.636C101.718 37.9618 101.568 37.3602 101.267 36.8312C100.977 36.3022 100.572 35.8925 100.053 35.6021C99.5348 35.3013 98.954 35.1509 98.3109 35.1509C97.6679 35.1509 97.087 35.3013 96.5684 35.6021C96.0498 35.8925 95.6401 36.3022 95.3393 36.8312C95.0489 37.3602 94.9037 37.9618 94.9037 38.636C94.9037 39.3101 95.0489 39.9117 95.3393 40.4407C95.6401 40.9697 96.0498 41.3846 96.5684 41.6853C97.087 41.9758 97.6679 42.121 98.3109 42.121Z" fill="#242424"/>
    <path d="M108.268 35.2443H104.783V33.1906H114.273V35.2443H110.788V44.0813H108.268V35.2443Z" fill="#242424"/>
    <path d="M120.752 44.268C119.621 44.268 118.6 44.0243 117.687 43.5368C116.784 43.0493 116.074 42.3803 115.555 41.5298C115.047 40.6689 114.793 39.7043 114.793 38.636C114.793 37.5676 115.047 36.6082 115.555 35.7577C116.074 34.8968 116.784 34.2226 117.687 33.7351C118.6 33.2477 119.621 33.0039 120.752 33.0039C121.882 33.0039 122.899 33.2477 123.801 33.7351C124.703 34.2226 125.414 34.8968 125.933 35.7577C126.451 36.6082 126.71 37.5676 126.71 38.636C126.71 39.7043 126.451 40.6689 125.933 41.5298C125.414 42.3803 124.703 43.0493 123.801 43.5368C122.899 44.0243 121.882 44.268 120.752 44.268ZM120.752 42.121C121.395 42.121 121.976 41.9758 122.494 41.6853C123.013 41.3846 123.417 40.9697 123.708 40.4407C124.009 39.9117 124.159 39.3101 124.159 38.636C124.159 37.9618 124.009 37.3602 123.708 36.8312C123.417 36.3022 123.013 35.8925 122.494 35.6021C121.976 35.3013 121.395 35.1509 120.752 35.1509C120.109 35.1509 119.528 35.3013 119.009 35.6021C118.491 35.8925 118.081 36.3022 117.78 36.8312C117.49 37.3602 117.344 37.9618 117.344 38.636C117.344 39.3101 117.49 39.9117 117.78 40.4407C118.081 40.9697 118.491 41.3846 119.009 41.6853C119.528 41.9758 120.109 42.121 120.752 42.121Z" fill="#242424"/>
    <path d="M247.467 44.1595C247.239 44.1595 247.042 44.0765 246.876 43.9106C246.72 43.7446 246.643 43.5424 246.643 43.3038C246.643 43.0652 246.72 42.8682 246.876 42.7126C247.042 42.5466 247.239 42.4637 247.467 42.4637C247.695 42.4637 247.892 42.5466 248.058 42.7126C248.224 42.8682 248.307 43.0652 248.307 43.3038C248.307 43.5424 248.224 43.7446 248.058 43.9106C247.892 44.0765 247.695 44.1595 247.467 44.1595Z" fill="#242424"/>
    <path d="M255.314 44.175C254.236 44.175 253.261 43.9365 252.389 43.4594C251.529 42.9823 250.849 42.3236 250.351 41.4835C249.864 40.633 249.62 39.6839 249.62 38.6364C249.62 37.5888 249.864 36.6449 250.351 35.8048C250.849 34.9543 251.534 34.2904 252.405 33.8133C253.276 33.3362 254.251 33.0977 255.33 33.0977C256.139 33.0977 256.886 33.2325 257.57 33.5022C258.255 33.7718 258.836 34.166 259.313 34.6846L258.582 35.4158C257.731 34.5549 256.658 34.1245 255.361 34.1245C254.5 34.1245 253.717 34.3216 253.012 34.7157C252.307 35.1098 251.752 35.6492 251.347 36.3337C250.953 37.0183 250.756 37.7858 250.756 38.6364C250.756 39.4869 250.953 40.2544 251.347 40.939C251.752 41.6235 252.307 42.1629 253.012 42.557C253.717 42.9511 254.5 43.1482 255.361 43.1482C256.668 43.1482 257.741 42.7126 258.582 41.8413L259.313 42.5726C258.836 43.0912 258.25 43.4905 257.555 43.7705C256.87 44.0402 256.123 44.175 255.314 44.175Z" fill="#242424"/>
    <path d="M266.3 44.175C265.221 44.175 264.241 43.9365 263.36 43.4594C262.488 42.9719 261.804 42.3081 261.306 41.4679C260.818 40.6278 260.575 39.6839 260.575 38.6364C260.575 37.5888 260.818 36.6449 261.306 35.8048C261.804 34.9646 262.488 34.306 263.36 33.8289C264.241 33.3414 265.221 33.0977 266.3 33.0977C267.379 33.0977 268.349 33.3362 269.209 33.8133C270.081 34.2904 270.765 34.9543 271.263 35.8048C271.761 36.6449 272.01 37.5888 272.01 38.6364C272.01 39.6839 271.761 40.633 271.263 41.4835C270.765 42.3236 270.081 42.9823 269.209 43.4594C268.349 43.9365 267.379 44.175 266.3 44.175ZM266.3 43.1482C267.161 43.1482 267.939 42.9563 268.634 42.5726C269.329 42.1784 269.873 41.6391 270.267 40.9545C270.662 40.2596 270.859 39.4869 270.859 38.6364C270.859 37.7858 270.662 37.0183 270.267 36.3337C269.873 35.6388 269.329 35.0995 268.634 34.7157C267.939 34.3216 267.161 34.1245 266.3 34.1245C265.439 34.1245 264.656 34.3216 263.951 34.7157C263.256 35.0995 262.706 35.6388 262.302 36.3337C261.907 37.0183 261.71 37.7858 261.71 38.6364C261.71 39.4869 261.907 40.2596 262.302 40.9545C262.706 41.6391 263.256 42.1784 263.951 42.5726C264.656 42.9563 265.439 43.1482 266.3 43.1482Z" fill="#242424"/>
    <path d="M285.901 33.191V44.0817H284.797V35.3691L280.518 42.697H279.974L275.695 35.4158V44.0817H274.59V33.191H275.54L280.269 41.2657L284.952 33.191H285.901Z" fill="#242424"/>
    <path d="M0.000528336 23.8555L4.66797 24.7273V44.081H0.000528336V23.8555Z" fill="#F0451F" fill-opacity="0.2"/>
    <path d="M6.22709 15.0391L10.8945 15.906V44.0809H6.22709V15.0391Z" fill="#F0451F" fill-opacity="0.4"/>
    <path d="M12.4478 7.25977L17.1152 8.47098V44.0807H12.4478V7.25977Z" fill="#F0451F" fill-opacity="0.7"/>
    <path d="M18.4119 0L56.5293 9.59418V44.0814H18.4119V0Z" fill="#F0451F"/>
</svg>